<svg width="166" height="66" viewBox="0 0 166 66" fill="none" xmlns="http://www.w3.org/2000/svg">
<rect width="166" height="66" rx="20" fill="#F1F1F1"/>
<path fill-rule="evenodd" clip-rule="evenodd" d="M57.1818 39.1132H50.1322V43.7611C50.1322 43.7611 50.1429 43.7488 50.15 43.7488C50.5421 43.3496 51.0112 43.0312 51.5298 42.8121C52.0484 42.5929 52.6063 42.4775 53.1708 42.4725C53.7353 42.4674 54.2952 42.5729 54.8178 42.7828C55.3404 42.9926 55.8152 43.3026 56.2146 43.6947C56.6141 44.0868 56.9301 44.5532 57.1442 45.0666C57.3583 45.58 57.4663 46.1301 57.4619 46.685C57.4574 47.2398 57.3406 47.7882 57.1183 48.2982C56.8959 48.8082 56.5725 49.2696 56.1668 49.6555C56.1668 49.6677 56.1526 49.6678 56.1436 49.68C56.1436 49.68 56.1276 49.6923 56.1205 49.7046C55.13 50.6731 53.9118 51.3867 52.5739 51.7822C51.2359 52.1778 49.8194 52.2431 48.4496 51.9723C47.0799 51.7016 45.7992 51.1031 44.7208 50.2299C43.6425 49.3568 42.7997 48.2358 42.2672 46.9662C41.7347 45.6966 41.5288 44.3176 41.6678 42.9512C41.8067 41.5848 42.2863 40.2731 43.0639 39.1323C43.8416 37.9914 44.8934 37.0566 46.1262 36.4104C47.3591 35.7643 48.735 35.4269 50.1322 35.4279V24.251C47.6232 24.2507 45.1536 24.8638 42.9458 26.0351C40.7379 27.2063 38.8611 28.8989 37.4844 30.9604C36.1077 33.0219 35.2743 35.3876 35.0593 37.8445C34.8443 40.3013 35.2544 42.7721 36.2528 45.0344C37.2511 47.2967 38.8063 49.2794 40.7782 50.804C42.7502 52.3286 45.077 53.3471 47.5491 53.7679C50.0213 54.1887 52.5611 53.9986 54.9398 53.2146C57.3186 52.4306 59.4616 51.0773 61.1758 49.2768V39.108L57.1818 39.1132Z" fill="#0079C2"/>
<path fill-rule="evenodd" clip-rule="evenodd" d="M59.1815 18.7598C58.2539 14.7695 55.9296 11.5242 55.6139 11C55.1091 11.7434 53.2539 14.6117 52.312 17.7833C51.3708 20.9579 51.0906 24.2864 51.4879 27.5699C51.8447 30.6696 53.1736 33.8535 53.1736 33.8535C53.8871 35.5138 54.9414 37.3074 55.6317 38.1858C56.636 36.8919 58.9621 33.0347 59.6935 28.0082C60.0966 25.203 60.1145 22.7485 59.1887 18.7598H59.1815ZM55.6139 37.1847C55.159 36.3431 54.4508 34.7441 54.3848 32.2545C54.367 29.8631 55.3445 27.8013 55.6335 27.3735C55.8886 27.8013 56.7288 29.5949 56.8305 32.0477C56.8774 33.8335 56.4599 35.6017 55.6175 37.1847H55.6139ZM58.9175 25.5326C58.8973 26.9101 58.7444 28.2826 58.4609 29.6317C58.5206 27.6788 58.3513 25.7257 57.956 23.8109C57.569 21.9928 56.4719 18.9422 55.5978 17.5396C54.7898 18.8826 53.7944 21.5177 53.2789 23.7987C52.7633 26.0796 52.7437 28.8515 52.7437 29.6808C52.4246 27.7985 52.2944 25.89 52.3548 23.9828C52.4537 22.2342 52.7365 20.5003 53.1986 18.8089C54.2261 15.5514 55.3891 13.4651 55.6085 13.1354C56.646 14.9001 57.4658 16.7799 58.0506 18.7353C58.6552 20.9512 58.9452 23.2386 58.9122 25.5326H58.9175Z" fill="#0079C2"/>
<path fill-rule="evenodd" clip-rule="evenodd" d="M122.052 39.1132H126V54H122.971V44.664H122.859L121.294 54H118.874L117.322 44.664H117.209V54H114.18V39.1132H118.115L120.09 49.5818L122.052 39.1132Z" fill="#0079C2"/>
<path fill-rule="evenodd" clip-rule="evenodd" d="M109.164 51.5945C109.166 51.658 109.154 51.7211 109.131 51.7801C109.107 51.8392 109.072 51.893 109.027 51.9386C108.982 51.9841 108.928 52.0203 108.869 52.0453C108.809 52.0702 108.745 52.0833 108.681 52.0837C108.617 52.0846 108.553 52.0723 108.493 52.0477C108.434 52.0231 108.381 51.9866 108.336 51.9407C108.292 51.8947 108.258 51.8402 108.236 51.7806C108.214 51.721 108.206 51.6577 108.21 51.5945V41.4503C108.204 41.3869 108.213 41.3231 108.234 41.263C108.255 41.203 108.289 41.148 108.334 41.1018C108.378 41.0556 108.432 41.0192 108.492 40.9949C108.552 40.9707 108.616 40.9592 108.681 40.9611C108.745 40.9616 108.809 40.9746 108.869 40.9996C108.928 41.0245 108.982 41.0608 109.027 41.1063C109.072 41.1518 109.107 41.2056 109.131 41.2647C109.154 41.3238 109.166 41.3868 109.164 41.4503V51.5893V51.5945ZM105.181 51.3386C105.181 52.3905 105.318 53.9982 107.429 53.9982H109.949C112.059 53.9982 112.197 52.3888 112.197 51.3386V41.7729C112.197 40.735 112.059 39.1132 109.949 39.1132H107.427C105.317 39.1132 105.179 40.735 105.179 41.7729L105.181 51.3386Z" fill="#0079C2"/>
<path fill-rule="evenodd" clip-rule="evenodd" d="M99.2088 47.2991V40.9664H99.6066C99.9294 40.9664 100.165 41.2364 100.165 41.7115V46.5557C100.165 47.0309 99.9294 47.2991 99.6066 47.2991H99.2088ZM96.1763 53.9982H99.2088V48.9349H100.946C103.056 48.9349 103.194 47.3236 103.194 46.2752V41.7729C103.194 40.735 103.056 39.1132 100.946 39.1132H96.1798L96.1763 53.9982Z" fill="#0079C2"/>
<path fill-rule="evenodd" clip-rule="evenodd" d="M87.1786 39.1132H94.1926V54H91.1637V40.9681H90.2076V54H87.1786V39.1132Z" fill="#0079C2"/>
<path fill-rule="evenodd" clip-rule="evenodd" d="M81.2063 48.7891V51.5943C81.2021 51.6575 81.2113 51.7209 81.2332 51.7805C81.2552 51.8401 81.2894 51.8946 81.3338 51.9405C81.3782 51.9865 81.4318 52.0229 81.4912 52.0475C81.5506 52.0721 81.6146 52.0843 81.679 52.0835C81.7436 52.083 81.8074 52.07 81.8668 52.045C81.9262 52.0201 81.9799 51.9839 82.0249 51.9383C82.0699 51.8928 82.1052 51.839 82.1288 51.7799C82.1524 51.7208 82.1639 51.6578 82.1625 51.5943V48.1299C82.1625 47.6653 82.0768 47.1534 80.9459 47.1534H79.7168V45.5176H80.9958C81.8521 45.5176 82.1625 45.323 82.1625 44.4078V41.4501C82.1639 41.3866 82.1524 41.3235 82.1288 41.2645C82.1052 41.2054 82.0699 41.1516 82.0249 41.106C81.9799 41.0605 81.9262 41.0243 81.8668 40.9993C81.8074 40.9744 81.7436 40.9614 81.679 40.9609C81.6142 40.9587 81.5496 40.97 81.4896 40.9942C81.4295 41.0183 81.3753 41.0547 81.3307 41.1009C81.286 41.1471 81.2518 41.2022 81.2304 41.2624C81.2089 41.3226 81.2007 41.3865 81.2063 41.4501V43.8783H78.1738V41.7744C78.1738 40.7365 78.2987 39.1147 80.4214 39.1147H82.9295C85.0523 39.1147 85.1878 40.7365 85.1878 41.7744V44.1536C85.1878 45.7771 84.0337 46.2154 83.1275 46.1786V46.3258C85.1646 46.2767 85.1878 47.8143 85.1878 48.3386V51.3383C85.1878 52.3903 85.0523 53.998 82.9295 53.998H80.425C78.3023 53.998 78.1774 52.3885 78.1774 51.3383V48.7891H81.2063Z" fill="#0079C2"/>
<path fill-rule="evenodd" clip-rule="evenodd" d="M72.3052 48.4108L72.8243 40.9665H73.0026L73.5217 48.4108H72.3052ZM68.9534 53.9984H71.9181L72.1981 50.0413H73.6252L73.907 53.9949H76.87L75.2913 39.1099H70.5321L68.9534 53.9984Z" fill="#0079C2"/>
<path fill-rule="evenodd" clip-rule="evenodd" d="M63.1059 39.1132H68.882V40.9681H66.1349V54H63.1059V39.1132Z" fill="#0079C2"/>
</svg>
