<svg width="166" height="66" viewBox="0 0 166 66" fill="none" xmlns="http://www.w3.org/2000/svg">
<rect width="166" height="66" rx="20" fill="#F1F1F1"/>
<g clip-path="url(#clip0_1_45)">
<path d="M48.0774 23.7471H27V44H48.0774V23.7471Z" fill="#ED1B34"/>
<path fill-rule="evenodd" clip-rule="evenodd" d="M44.6737 25.7677C44.4513 25.7734 44.2351 25.8401 44.0508 25.96C43.8664 26.08 43.7216 26.2481 43.6334 26.4445L40.984 30.6371C40.8063 30.9858 40.6987 31.3636 40.6667 31.7507C40.658 31.9892 40.7042 32.2265 40.8019 32.4459L43.6698 39.034H32.5225C32.3289 39.0199 32.1474 38.9379 32.0125 38.8036C31.8776 38.6693 31.7987 38.4921 31.7908 38.3055V26.9446C31.7075 25.3926 29.3876 25.3926 29.3373 26.9913L29.3858 39.0407C29.3798 39.3482 29.4376 39.6538 29.5557 39.9396C29.6738 40.2254 29.8499 40.4858 30.0738 40.7055C30.2976 40.9252 30.5647 41.0999 30.8595 41.2194C31.1543 41.3388 31.4709 41.4006 31.7908 41.4013H46.9902L43.2883 32.2925C43.2193 32.1221 43.1921 31.9386 43.2089 31.7565C43.2258 31.5743 43.2862 31.3983 43.3854 31.2423L45.8407 27.4081C45.8857 27.2394 45.913 27.0669 45.9222 26.893C45.9122 26.584 45.7751 26.2915 45.5411 26.0796C45.307 25.8677 44.9951 25.7537 44.6737 25.7627V25.7677ZM38.6553 25.7677C38.8156 25.7614 38.9755 25.7874 39.1246 25.8441C39.2738 25.9008 39.409 25.9868 39.5215 26.0967C39.6341 26.2066 39.7214 26.338 39.778 26.4823C39.8346 26.6266 39.8591 26.7807 39.85 26.9346V35.1382C39.85 37.0119 38.3952 38.2572 36.611 38.2572C34.8771 38.2572 33.4258 37.0119 33.4258 35.1382V26.9446C33.4258 25.3926 35.81 25.3926 35.81 26.9446V35.0715C35.81 36.1551 37.4641 36.2501 37.4641 35.0715V26.9446C37.4562 26.791 37.4814 26.6374 37.538 26.4935C37.5947 26.3497 37.6817 26.2186 37.7936 26.1086C37.9054 25.9986 38.0397 25.9119 38.188 25.8541C38.3363 25.7963 38.4954 25.7686 38.6553 25.7727V25.7677Z" fill="white"/>
<path fill-rule="evenodd" clip-rule="evenodd" d="M56.0292 26.0976V34.5295C56.0292 36.6383 55.7968 37.8053 54.0143 37.8053C53.7116 37.824 53.408 37.7844 53.1214 37.6886V41.3177C53.6571 41.5032 54.2261 41.5831 54.7946 41.5528C59.8125 41.5528 60.0362 37.9236 60.0362 35.8148V29.7284H62.9353V41.3194H66.9528V26.0976H56.0292Z" fill="#2D2D2D"/>
<path fill-rule="evenodd" clip-rule="evenodd" d="M68.2879 26.0976L73.7532 37.1051L71.7453 41.3194H76.094L82.5615 26.0976H78.2128L75.872 32.5374L73.0822 26.0976H68.2879Z" fill="#2D2D2D"/>
<path fill-rule="evenodd" clip-rule="evenodd" d="M83.7874 41.3194H87.8031V34.7629L91.9298 41.3194H97.0605L91.3732 33.4743L96.9478 26.0976H92.1535L87.8031 32.5374V26.0976H83.7874V41.3194Z" fill="#2D2D2D"/>
<path fill-rule="evenodd" clip-rule="evenodd" d="M103.639 41.7895C108.992 41.7895 111.442 37.8069 111.442 33.7093C111.442 29.7284 108.988 25.7475 103.639 25.7475C98.3973 25.7475 95.9438 29.7284 95.9438 33.7093C95.9438 37.8069 98.3973 41.7895 103.639 41.7895ZM103.639 38.1587C101.853 38.1587 100.071 36.6367 100.071 33.7093C100.071 30.782 101.853 29.375 103.639 29.375C105.534 29.375 107.318 30.7803 107.318 33.7093C107.318 36.6383 105.534 38.1587 103.639 38.1587Z" fill="#2D2D2D"/>
<path fill-rule="evenodd" clip-rule="evenodd" d="M113.451 26.0976V41.3194H117.356L122.93 32.1873V41.3194H126.835V26.0976H122.93L117.356 35.2313V26.0976H113.451ZM120.255 25.2791C121.928 25.2791 123.6 24.6923 124.38 22.9369L122.039 22C121.705 23.1669 120.701 23.2886 120.255 23.2886C119.919 23.2886 118.804 23.1703 118.582 22L116.241 22.9369C116.909 24.6923 118.693 25.2791 120.255 25.2791V25.2791Z" fill="#2D2D2D"/>
<path fill-rule="evenodd" clip-rule="evenodd" d="M131.071 26.0976V34.5295C131.071 36.6367 130.847 37.8069 129.065 37.8069C128.762 37.8257 128.459 37.786 128.172 37.6902V41.3194C128.708 41.5048 129.277 41.5848 129.845 41.5544C134.863 41.5544 135.087 37.9253 135.087 35.8165V29.7284H137.986V41.3194H142V26.0976H131.071Z" fill="#2D2D2D"/>
</g>
<defs>
<clipPath id="clip0_1_45">
<rect width="115" height="22" fill="white" transform="translate(27 22)"/>
</clipPath>
</defs>
</svg>
